<?xml version="1.0" encoding="utf-8"?>
<!-- Generator: Adobe Illustrator 21.1.0, SVG Export Plug-In . SVG Version: 6.00 Build 0)  -->
<svg version="1.1" id="Capa_1" xmlns="http://www.w3.org/2000/svg" xmlns:xlink="http://www.w3.org/1999/xlink" x="0px" y="0px"
	 viewBox="0 0 182.2 182.2" style="enable-background:new 0 0 182.2 182.2;" xml:space="preserve">
<style type="text/css">
	.st0{fill:#FFFFFF;}
</style>
<g>
	<g>
		<path class="st0" d="M91.1,0C40.8,0,0,40.9,0,91.1c0,50.3,40.9,91.1,91.1,91.1c50.2,0,91.1-40.9,91.1-91.1
			C182.2,40.9,141.3,0,91.1,0z M156.5,126.6l-6.1-3.5l-2,3.5l6.1,3.6c-6.1,10-14.5,18.3-24.5,24.5l-3.5-6.2l-3.5,2l3.5,6.1
			c-10,5.5-21.3,8.8-33.4,9.1v-7.2h-4.1v7.2c-12.1-0.3-23.4-3.7-33.4-9.1l3.5-6.1l-3.6-2l-3.5,6.2c-10-6.1-18.4-14.5-24.5-24.5
			l6.2-3.6l-2-3.5l-6.1,3.5c-5.4-10-8.8-21.3-9.1-33.4h7.3v-4.1h-7.3c0.3-12.1,3.7-23.4,9.1-33.4l6.1,3.5l2-3.5l-6.2-3.6
			c6.1-10,14.5-18.3,24.4-24.5l3.6,6.2l3.5-2l-3.5-6.1c10-5.5,21.3-8.8,33.4-9.1v7.2h4.1l0-7.2c12.1,0.3,23.4,3.7,33.4,9.1l-3.5,6.1
			l3.6,2l3.5-6.2c10,6.1,18.3,14.5,24.5,24.5l-6.2,3.6l2,3.5l6.1-3.5c5.5,10,8.8,21.3,9.2,33.4h-7.2v4.1h7.2
			C165.3,105.3,162,116.5,156.5,126.6z"/>
		<path class="st0" d="M98.1,82.9c-10.6-4-14.9-6.6-14.9-10.7c0-3.5,2.6-7,10.7-7c8.9,0,14.7,2.9,17.9,4.2l3.6-14.1
			c-4.1-2-9.7-3.7-18-4.1V40.3H85.1v11.8c-13.3,2.6-21,11.2-21,22.2c0,12.1,9.1,18.3,22.4,22.8c9.2,3.1,13.2,6.1,13.2,10.8
			c0,5-4.8,7.7-11.9,7.7c-8.1,0-15.4-2.6-20.7-5.5l-3.7,14.6c4.7,2.7,12.8,5,21.2,5.3v11.8h12.2v-12.7c14.3-2.5,22.2-12,22.2-23
			C118.9,95,112.9,88.1,98.1,82.9z"/>
	</g>
</g>
</svg>
