<?xml version="1.0" encoding="utf-8"?>
<!-- Generator: Adobe Illustrator 21.1.0, SVG Export Plug-In . SVG Version: 6.00 Build 0)  -->
<svg version="1.1" id="Capa_1" xmlns="http://www.w3.org/2000/svg" xmlns:xlink="http://www.w3.org/1999/xlink" x="0px" y="0px"
	 viewBox="0 0 183.8 183.8" style="enable-background:new 0 0 183.8 183.8;" xml:space="preserve">
<style type="text/css">
	.st0{fill:#FFFFFF;}
</style>
<g>
	<g>
		<path class="st0" d="M98.4,115.8c-3.3-0.4-6.3-2-8.4-4.6c-2.1-2.6-3.1-5.9-2.7-9.3l1.5-13.1h0V73.3h1.8l0.8-7.2h-6.6V54.3H67.8
			v11.9h-8.4v2.3H50v92h-4.1V50.6h-9.7V38.7h-9.6V18.5h-2.4v20.3h-9.6v11.9H4.8v114.7h41.2H50h52.5v-49.7
			C101.2,115.9,99.8,116,98.4,115.8z M16.9,41.1h16.9v9.5H16.9V41.1z M18.5,142.6H9.6v-15.5h8.9V142.6z M18.5,124.7H9.6v-15.5h8.9
			V124.7z M18.5,106.8H9.6V91.2h8.9V106.8z M18.5,70.9H9.6V55.4h4.9h4V70.9z M29.8,160.5h-8.9V145h8.9V160.5z M29.8,142.6h-8.9
			v-15.5h8.9V142.6z M29.8,88.9h-8.9V73.3h8.9V88.9z M29.8,70.9h-8.9V55.4h8.9V70.9z M41.1,142.6h-8.9v-15.5h8.9L41.1,142.6
			L41.1,142.6z M41.1,124.7h-8.9v-15.5h8.9L41.1,124.7L41.1,124.7z M41.1,106.8h-8.9V91.2h8.9L41.1,106.8L41.1,106.8z M41.1,88.9
			h-8.9V73.3h8.9L41.1,88.9L41.1,88.9z M70.2,56.7h12V65h-12V56.7z M63.7,142.6h-8.9v-15.5h8.9V142.6z M63.7,106.8h-8.9V91.2h8.9
			V106.8z M75.1,160.5h-8.9V145h8.9V160.5z M75.1,124.7h-8.9v-15.5h8.9V124.7z M75.1,88.9h-8.9V73.3h8.9V88.9z M86.4,160.5h-8.9V145
			h8.9V160.5z M86.4,142.6h-8.9v-15.5h8.9V142.6z M86.4,124.7h-8.9v-15.5h8.9V124.7z M86.4,106.8h-8.9V91.2h8.9V106.8z M97.7,142.6
			h-8.9v-15.5h8.9V142.6z"/>
		<path class="st0" d="M133.5,38.8c9.8,0,17.7-11.3,17.7-21.1c0-9.8-7.9-17.7-17.7-17.7c-9.8,0-17.7,7.9-17.7,17.7
			C115.8,27.5,123.7,38.8,133.5,38.8z"/>
		<path class="st0" d="M176.2,113.6h-5v-4.7c2-1.4,3.2-3.8,2.9-6.3l-5.6-50.4c0-0.3-0.2-0.6-0.3-0.9c-0.1-0.5-0.2-1-0.5-1.5
			c-0.2-0.4-0.4-0.6-0.7-0.9c-0.3-0.4-0.6-0.8-1-1.2c-0.3-0.3-0.7-0.4-1-0.6c-0.4-0.2-0.7-0.5-1.1-0.6c-0.6-0.2-14.7-5.3-27.7-5.9
			l-1.8,3.6h0l4.7,36.7l-5.6,9.8l-5.6-9.8l4.7-36.7h-0.1l-1.8-3.6c-13,0.7-27.1,5.7-27.7,5.9c-0.4,0.2-0.7,0.4-1.1,0.7
			c-0.3,0.2-0.7,0.4-1,0.6c-0.4,0.3-0.7,0.8-1,1.2c-0.2,0.3-0.5,0.6-0.7,0.9c-0.2,0.5-0.4,1-0.5,1.5c-0.1,0.3-0.3,0.6-0.3,0.9
			l-5.6,50.4c-0.4,3.9,2.3,7.3,6.2,7.7c0.3,0,0.5,0,0.8,0c3.5,0,6.6-2.6,6.9-6.2l5.1-45.9c0.6-0.2,1.2-0.4,1.9-0.6v47.8l-5.6,69.3
			c-0.4,4.6,3.1,8.7,7.7,9.1c0.2,0,0.4,0,0.7,0c4.3,0,8-3.3,8.4-7.7l5-62.7c1,0.5,2.2,0.7,3.4,0.7c1.2,0,2.4-0.3,3.4-0.7l5,62.7
			c0.4,4.4,4,7.7,8.4,7.7c0.2,0,0.5,0,0.7,0c4.6-0.4,8.1-4.4,7.7-9.1l-5.6-69.3V57.6c0.7,0.2,1.3,0.4,1.9,0.6l5.1,45.9
			c0.4,3.4,3.1,5.8,6.4,6.1v3.4h-5c-1.5,0-2.8,1.3-2.8,2.8v42.5c0,1.5,1.3,2.8,2.8,2.8h14.7c1.5,0,2.8-1.3,2.8-2.8v-42.5
			C179,114.9,177.7,113.6,176.2,113.6z"/>
	</g>
</g>
</svg>
